#!OML:ASF F:\VICON\USERDATA\INSTALL\rory3\rory3.ASF
:FULLY-SPECIFIED
:DEGREES
248
root 3.42654 17.834 -14.0836 -5.089 -6.09943 4.25199
lowerback 20.097 -2.7634 -5.85574
upperback 1.32912 -4.80137 1.65473
thorax -9.16007 -2.01919 6.45953
lowerneck -5.0906 -7.10206 -5.52035
upperneck 35.0016 -8.55474 -3.77269
head 12.5411 -5.06712 -1.52501
rclavicle -2.49475e-014 1.43125e-014
rhumerus -38.5688 -42.0848 -36.2998
rradius 105.657
rwrist -23.3904
rhand -7.75589 0.361995
rfingers 7.12502
rthumb 18.1437 -28.8118
lclavicle -2.49475e-014 1.43125e-014
lhumerus -43.3584 5.19109 73.2551
lradius 45.7782
lwrist 5.45119
lhand -11.1868 49.4835
lfingers 7.12502
lthumb 14.8406 78.9321
rfemur -19.7187 -0.866037 15.6041
rtibia 72.3897
rfoot 0.568178 -11.3498
rtoes 16.8426
lfemur -6.69294 -3.53302 -26.9642
ltibia 25.8586
lfoot -12.4709 1.66316
ltoes -3.12783
249
root 3.43334 17.8205 -13.931 -4.99029 -5.57176 4.47566
lowerback 20.4272 -2.80135 -6.17739
upperback 0.928068 -4.94402 1.77063
thorax -9.73137 -2.02676 6.86143
lowerneck -5.23604 -6.95176 -5.37116
upperneck 35.363 -8.25836 -4.08467
head 12.6973 -4.95753 -1.65541
rclavicle 4.47266e-015 -1.59028e-015
rhumerus -37.1295 -40.8928 -37.1379
rradius 106.204
rwrist -21.1031
rhand -8.37095 0.648269
rfingers 7.12502
rthumb 17.5519 -28.5794
lclavicle 4.47266e-015 -1.59028e-015
lhumerus -43.136 5.08115 73.4806
lradius 46.3023
lwrist 5.41385
lhand -11.025 49.6364
lfingers 7.12502
lthumb 14.9964 79.0734
rfemur -20.7504 -1.53791 15.6301
rtibia 72.0151
rfoot -1.07288 -10.836
rtoes 16.6094
lfemur -6.28732 -3.59167 -27.3185
ltibia 26.0361
lfoot -13.0886 1.39957
ltoes -3.71377
250
root 3.43681 17.8054 -13.7923 -4.85549 -5.34864 4.21672
lowerback 20.213 -2.94401 -6.10449
upperback 0.755726 -5.08879 1.9602
thorax -9.77163 -2.08819 7.05978
lowerneck -4.60653 -6.69004 -5.47597
upperneck 35.1744 -7.91606 -4.04236
head 12.4929 -4.81755 -1.54097
rclavicle -6.84813e-014 -2.14687e-014
rhumerus -35.2571 -39.4113 -38.6145
rradius 106.567
rwrist -18.6261
rhand -9.14925 1.06266
rfingers 7.12502
rthumb 16.8028 -28.2303
lclavicle -6.84813e-014 -2.14687e-014
lhumerus -42.825 5.15963 73.4903
lradius 46.7752
lwrist 5.35721
lhand -11.0267 49.9548
lfingers 7.12502
lthumb 14.9948 79.3919
rfemur -21.9411 -1.78541 16.3118
rtibia 71.4985
rfoot -2.61743 -10.5592
rtoes 15.6971
lfemur -5.92683 -3.50888 -27.0994
ltibia 26.1754
lfoot -13.7443 1.21643
ltoes -6.16328
251
root 3.44334 17.7792 -13.66 -4.88437 -5.91229 4.36452
lowerback 19.8212 -2.54545 -6.02761
upperback 1.25509 -4.53397 1.70528
thorax -9.11213 -1.8845 6.52752
lowerneck -3.69825 -6.76334 -5.08952
upperneck 33.3972 -8.25051 -3.54669
head 11.5706 -4.84193 -1.33393
rclavicle 2.41523e-014 -4.77083e-015
rhumerus -33.5386 -39.4689 -40.2251
rradius 106.913
rwrist -16.4286
rhand -9.65607 1.37071
rfingers 7.12502
rthumb 16.3148 -27.963
lclavicle 2.41523e-014 -4.77083e-015
lhumerus -40.8398 4.44924 73.5746
lradius 47.048
lwrist 5.60641
lhand -11.5232 49.9791
lfingers 7.12502
lthumb 14.5164 79.4512
rfemur -23.2356 -1.379 16.5115
rtibia 70.9293
rfoot -3.87802 -10.1836
rtoes 15.0348
lfemur -5.53985 -2.99323 -27.3419
ltibia 26.431
lfoot -14.4935 1.4549
ltoes -7.32114
252
root 3.44825 17.7521 -13.5169 -4.79366 -5.73247 4.76576
lowerback 19.4085 -3.53552 -8.14586
upperback 0.151873 -6.22728 2.75313
thorax -9.51459 -2.52014 9.34936
lowerneck -0.795538 -5.1169 -7.20426
upperneck 33.0648 -5.71839 -4.15677
head 10.941 -4.04071 -0.821543
rclavicle -9.19379e-014 -1.19271e-014
rhumerus -29.3863 -33.8419 -42.8332
rradius 106.797
rwrist -14.6491
rhand -9.58663 1.69136
rfingers 7.12502
rthumb 16.3817 -27.6368
lclavicle -9.19379e-014 -1.19271e-014
lhumerus -44.2927 8.01944 73.1799
lradius 48.2485
lwrist 5.68954
lhand -11.8832 50.0098
lfingers 7.12502
lthumb 14.1695 79.5066
rfemur -24.3798 -1.69636 16.3854
rtibia 70.2573
rfoot -5.25066 -9.85906
rtoes 13.5202
lfemur -5.30499 -2.87802 -27.8756
ltibia 26.705
lfoot -15.1351 1.37991
ltoes -7.91358
253
root 3.45152 17.7282 -13.3759 -4.70292 -5.42014 4.95393
lowerback 20.2323 -2.65156 -6.98439
upperback 0.533051 -4.92607 1.85864
thorax -9.99529 -1.95144 7.42318
lowerneck -4.06479 -6.3396 -5.21855
upperneck 34.5034 -7.53757 -3.8207
head 12.0888 -4.58389 -1.39902
rclavicle -8.54774e-015 -1.27222e-014
rhumerus -30.1279 -36.4111 -42.6219
rradius 107.023
rwrist -12.2339
rhand -9.44112 2.11924
rfingers 7.12502
rthumb 16.5218 -27.1974
lclavicle -8.54774e-015 -1.27222e-014
lhumerus -40.8771 4.40714 73.8768
lradius 48.2916
lwrist 6.41463
lhand -12.1476 49.9008
lfingers 7.12502
lthumb 13.9147 79.4152
rfemur -25.4215 -2.11898 16.5017
rtibia 69.4141
rfoot -6.43685 -9.69076
rtoes 13.556
lfemur -5.02033 -2.8706 -28.1672
ltibia 26.92
lfoot -15.7505 1.20127
ltoes -8.3056
254
root 3.45468 17.7059 -13.2371 -4.53812 -5.16706 5.21994
lowerback 19.4883 -2.4567 -6.81196
upperback 1.16064 -4.59472 1.47032
thorax -8.98408 -1.89113 6.70731
lowerneck -5.26133 -6.65018 -4.62729
upperneck 34.3235 -8.1499 -3.30084
head 12.2485 -4.70498 -1.41903
rclavicle 3.30976e-014 7.15625e-015
rhumerus -28.2769 -37.0207 -44.2798
rradius 106.812
rwrist -9.6138
rhand -9.93105 2.61965
rfingers 7.12502
rthumb 16.05 -26.7356
lclavicle 3.30976e-014 7.15625e-015
lhumerus -38.6063 3.04023 74.2165
lradius 48.6863
lwrist 8.13848
lhand -13.3948 49.8535
lfingers 7.12502
lthumb 12.7126 79.4465
rfemur -26.5853 -2.50637 16.5177
rtibia 68.4426
rfoot -7.23903 -9.5745
rtoes 14.5458
lfemur -4.78848 -2.93085 -28.5516
ltibia 27.0825
lfoot -16.2455 1.11732
ltoes -8.75018
